# xmcd
#
# Track frame offsets: 
#        150
#        16537
#        36877
#        55590
#        75872
#        94800
#        111780
#        131484
#        148962
#        165478
#        178481
#        193477
#        212234
#        232940
#        249099
#        269179
#
# Disc length: 3806 seconds
#
# Revision: 0
# Processed by: cddbd v1.5.2PL0 Copyright (c) Steve Scherf et al.
# Submitted via: ExactAudioCopy v0.99pb3
#
DISCID=dc0edc10
DTITLE=Betty Harris - Intuition
DYEAR=2007
DGENRE=soul
TTITLE0=Is it Hot in Here?
TTITLE1=Isolation (Someone to Hold)
TTITLE2=Intution
TTITLE3=Still Amazed
TTITLE4=Since You Brought Your Sweet Love
TTITLE5=A Fool Can Always Break Your Heart
TTITLE6=You Do My Soul Good
TTITLE7=How to be Nice
TTITLE8=Who's Takin Care of Baby?
TTITLE9=Time to Fly
TTITLE10=It is What it is
TTITLE11=Need
TTITLE12=She Stays On
TTITLE13=Tell it to the Preacher Man
TTITLE14=A Bible and a Beer
TTITLE15=Happiness is Mine
EXTD=
EXTT0=
EXTT1=
EXTT2=
EXTT3=
EXTT4=
EXTT5=
EXTT6=
EXTT7=
EXTT8=
EXTT9=
EXTT10=
EXTT11=
EXTT12=
EXTT13=
EXTT14=
EXTT15=
PLAYORDER=
